<svg width="140" height="90" viewBox="0 0 140 90" fill="none" xmlns="http://www.w3.org/2000/svg">
<rect width="140" height="90" fill="white"/>
<path d="M44 3H4V43H44V3Z" fill="#FFD884"/>
<path d="M44 32H4V43H44V32Z" fill="#FFAF00"/>
<path d="M30.8905 35H8.1095C7.49674 35 7 35.4967 7 36.1095V36.8905C7 37.5033 7.49674 38 8.1095 38H30.8905C31.5033 38 32 37.5033 32 36.8905V36.1095C32 35.4967 31.5033 35 30.8905 35Z" fill="white"/>
<path d="M21.5 40H7.5C7.22386 40 7 40.2239 7 40.5C7 40.7761 7.22386 41 7.5 41H21.5C21.7761 41 22 40.7761 22 40.5C22 40.2239 21.7761 40 21.5 40Z" fill="white"/>
<path d="M90 3H50V43H90V3Z" fill="#88D282"/>
<path d="M90 32H50V43H90V32Z" fill="#51904B"/>
<path d="M76.8905 35H54.1095C53.4967 35 53 35.4967 53 36.1095V36.8905C53 37.5033 53.4967 38 54.1095 38H76.8905C77.5033 38 78 37.5033 78 36.8905V36.1095C78 35.4967 77.5033 35 76.8905 35Z" fill="white"/>
<path d="M67.5 40H53.5C53.2239 40 53 40.2239 53 40.5C53 40.7761 53.2239 41 53.5 41H67.5C67.7761 41 68 40.7761 68 40.5C68 40.2239 67.7761 40 67.5 40Z" fill="white"/>
<path d="M136 3H96V43H136V3Z" fill="#FF7878"/>
<path d="M136 32H96V43H136V32Z" fill="#FF2222"/>
<path d="M122.89 35H100.109C99.4967 35 99 35.4967 99 36.1095V36.8905C99 37.5033 99.4967 38 100.109 38H122.89C123.503 38 124 37.5033 124 36.8905V36.1095C124 35.4967 123.503 35 122.89 35Z" fill="white"/>
<path d="M113.5 40H99.5C99.2239 40 99 40.2239 99 40.5C99 40.7761 99.2239 41 99.5 41H113.5C113.776 41 114 40.7761 114 40.5C114 40.2239 113.776 40 113.5 40Z" fill="white"/>
<path d="M44 47H4V87H44V47Z" fill="#71FFEE"/>
<path d="M44 76H4V87H44V76Z" fill="#00E4C9"/>
<path d="M30.8905 79H8.1095C7.49674 79 7 79.4967 7 80.1095V80.8905C7 81.5033 7.49674 82 8.1095 82H30.8905C31.5033 82 32 81.5033 32 80.8905V80.1095C32 79.4967 31.5033 79 30.8905 79Z" fill="white"/>
<path d="M21.5 84H7.5C7.22386 84 7 84.2239 7 84.5C7 84.7761 7.22386 85 7.5 85H21.5C21.7761 85 22 84.7761 22 84.5C22 84.2239 21.7761 84 21.5 84Z" fill="white"/>
<path d="M90 47H50V87H90V47Z" fill="#4DAAFF"/>
<path d="M90 76H50V87H90V76Z" fill="#0085FF"/>
<path d="M76.8905 79H54.1095C53.4967 79 53 79.4967 53 80.1095V80.8905C53 81.5033 53.4967 82 54.1095 82H76.8905C77.5033 82 78 81.5033 78 80.8905V80.1095C78 79.4967 77.5033 79 76.8905 79Z" fill="white"/>
<path d="M67.5 84H53.5C53.2239 84 53 84.2239 53 84.5C53 84.7761 53.2239 85 53.5 85H67.5C67.7761 85 68 84.7761 68 84.5C68 84.2239 67.7761 84 67.5 84Z" fill="white"/>
<path d="M136 47H96V87H136V47Z" fill="#7580E5"/>
<path d="M136 76H96V87H136V76Z" fill="#4656E1"/>
<path d="M122.89 79H100.109C99.4967 79 99 79.4967 99 80.1095V80.8905C99 81.5033 99.4967 82 100.109 82H122.89C123.503 82 124 81.5033 124 80.8905V80.1095C124 79.4967 123.503 79 122.89 79Z" fill="white"/>
<path d="M113.5 84H99.5C99.2239 84 99 84.2239 99 84.5C99 84.7761 99.2239 85 99.5 85H113.5C113.776 85 114 84.7761 114 84.5C114 84.2239 113.776 84 113.5 84Z" fill="white"/>
</svg>
