<svg width="140" height="90" viewBox="0 0 140 90" fill="none" xmlns="http://www.w3.org/2000/svg">
<rect width="140" height="90" fill="white"/>
<mask id="mask0_3059_2951" style="mask-type:luminance" maskUnits="userSpaceOnUse" x="5" y="7" width="40" height="76">
<path d="M43.1148 7H6.88517C6.12016 7 5.5 7.63692 5.5 8.42261V81.5774C5.5 82.3631 6.12016 83 6.88517 83H43.1148C43.8798 83 44.5 82.3631 44.5 81.5774V8.42261C44.5 7.63692 43.8798 7 43.1148 7Z" fill="white"/>
</mask>
<g mask="url(#mask0_3059_2951)">
<path d="M44.5 7H5.5V60.1753H44.5V7Z" fill="white"/>
<path d="M44.5 27.027C44.5 15.9664 35.7696 7 25 7C14.2304 7 5.5 15.9664 5.5 27.027C5.5 38.0876 14.2304 47.0541 25 47.0541C35.7696 47.0541 44.5 38.0876 44.5 27.027Z" fill="#F5B936"/>
<path opacity="0.9" d="M35.8905 50.1348H13.1095C12.4967 50.1348 12 50.6449 12 51.2743V52.0764C12 52.7057 12.4967 53.2158 13.1095 53.2158H35.8905C36.5033 53.2158 37 52.7057 37 52.0764V51.2743C37 50.6449 36.5033 50.1348 35.8905 50.1348Z" fill="#2349DD"/>
<path opacity="0.9" d="M24.5 75.082H9.5C9.22386 75.082 9 75.3119 9 75.5955C9 75.8792 9.22386 76.1091 9.5 76.1091H24.5C24.7761 76.1091 25 75.8792 25 75.5955C25 75.3119 24.7761 75.082 24.5 75.082Z" fill="#B1B1B1"/>
<path opacity="0.9" d="M38.0625 78H9.9375C9.41973 78 9 78.6716 9 79.5C9 80.3284 9.41973 81 9.9375 81H38.0625C38.5803 81 39 80.3284 39 79.5C39 78.6716 38.5803 78 38.0625 78Z" fill="#B6C5FF"/>
<path opacity="0.9" d="M24.5 72H9.5C9.22386 72 9 72.2299 9 72.5135C9 72.7971 9.22386 73.027 9.5 73.027H24.5C24.7761 73.027 25 72.7971 25 72.5135C25 72.2299 24.7761 72 24.5 72Z" fill="#B1B1B1"/>
<path opacity="0.9" d="M31.5 55.2695H17.5C17.2239 55.2695 17 55.4994 17 55.783C17 56.0667 17.2239 56.2966 17.5 56.2966H31.5C31.7761 56.2966 32 56.0667 32 55.783C32 55.4994 31.7761 55.2695 31.5 55.2695Z" fill="#B1B1B1"/>
<path opacity="0.6" d="M40.1295 59.5391H9.19851C9.01283 59.5391 8.8623 59.6937 8.8623 59.8844C8.8623 60.0751 9.01283 60.2296 9.19851 60.2296H40.1295C40.3152 60.2296 40.4657 60.0751 40.4657 59.8844C40.4657 59.6937 40.3152 59.5391 40.1295 59.5391Z" fill="#D7D6D6"/>
<path opacity="0.6" d="M28.0261 61.6113H9.19851C9.01283 61.6113 8.8623 61.7659 8.8623 61.9566C8.8623 62.1473 9.01283 62.3019 9.19851 62.3019H28.0261C28.2118 62.3019 28.3623 62.1473 28.3623 61.9566C28.3623 61.7659 28.2118 61.6113 28.0261 61.6113Z" fill="#D7D6D6"/>
<path opacity="0.6" d="M32.0606 65.7559H9.19851C9.01283 65.7559 8.8623 65.9105 8.8623 66.1012C8.8623 66.2919 9.01283 66.4464 9.19851 66.4464H32.0606C32.2463 66.4464 32.3968 66.2919 32.3968 66.1012C32.3968 65.9105 32.2463 65.7559 32.0606 65.7559Z" fill="#D7D6D6"/>
<path opacity="0.6" d="M37.4399 63.6836H9.19851C9.01283 63.6836 8.8623 63.8382 8.8623 64.0289C8.8623 64.2196 9.01283 64.3742 9.19851 64.3742H37.4399C37.6256 64.3742 37.7761 64.2196 37.7761 64.0289C37.7761 63.8382 37.6256 63.6836 37.4399 63.6836Z" fill="#D7D6D6"/>
<rect x="15" y="79" width="1" height="1" fill="#395CE1"/>
<rect x="19" y="79" width="1" height="1" fill="#395CE1"/>
<rect x="23" y="79" width="1" height="1" fill="#395CE1"/>
<rect x="27" y="79" width="1" height="1" fill="#395CE1"/>
<rect x="31" y="79" width="1" height="1" fill="#395CE1"/>
</g>
<mask id="mask1_3059_2951" style="mask-type:luminance" maskUnits="userSpaceOnUse" x="50" y="7" width="40" height="76">
<path d="M88.1148 7H51.8852C51.1202 7 50.5 7.63692 50.5 8.42261V81.5774C50.5 82.3631 51.1202 83 51.8852 83H88.1148C88.8798 83 89.5 82.3631 89.5 81.5774V8.42261C89.5 7.63692 88.8798 7 88.1148 7Z" fill="white"/>
</mask>
<g mask="url(#mask1_3059_2951)">
<path d="M89.5 7H50.5V60.1753H89.5V7Z" fill="white"/>
<path d="M89.5 27.027C89.5 15.9664 80.7696 7 70 7C59.2304 7 50.5 15.9664 50.5 27.027C50.5 38.0876 59.2304 47.0541 70 47.0541C80.7696 47.0541 89.5 38.0876 89.5 27.027Z" fill="#FF4F4F"/>
<path opacity="0.9" d="M80.8905 50.1348H58.1095C57.4967 50.1348 57 50.6449 57 51.2743V52.0764C57 52.7057 57.4967 53.2158 58.1095 53.2158H80.8905C81.5033 53.2158 82 52.7057 82 52.0764V51.2743C82 50.6449 81.5033 50.1348 80.8905 50.1348Z" fill="#F5B936"/>
<path opacity="0.9" d="M69.5 75.082H54.5C54.2239 75.082 54 75.3119 54 75.5955C54 75.8792 54.2239 76.1091 54.5 76.1091H69.5C69.7761 76.1091 70 75.8792 70 75.5955C70 75.3119 69.7761 75.082 69.5 75.082Z" fill="#B1B1B1"/>
<path opacity="0.9" d="M83.0625 78H54.9375C54.4197 78 54 78.6716 54 79.5C54 80.3284 54.4197 81 54.9375 81H83.0625C83.5803 81 84 80.3284 84 79.5C84 78.6716 83.5803 78 83.0625 78Z" fill="#FFEEC8"/>
<path opacity="0.9" d="M69.5 72H54.5C54.2239 72 54 72.2299 54 72.5135C54 72.7971 54.2239 73.027 54.5 73.027H69.5C69.7761 73.027 70 72.7971 70 72.5135C70 72.2299 69.7761 72 69.5 72Z" fill="#B1B1B1"/>
<path opacity="0.9" d="M76.5 55.2695H62.5C62.2239 55.2695 62 55.4994 62 55.783C62 56.0667 62.2239 56.2966 62.5 56.2966H76.5C76.7761 56.2966 77 56.0667 77 55.783C77 55.4994 76.7761 55.2695 76.5 55.2695Z" fill="#B1B1B1"/>
<path opacity="0.6" d="M85.1295 59.5391H54.1985C54.0128 59.5391 53.8623 59.6937 53.8623 59.8844C53.8623 60.0751 54.0128 60.2296 54.1985 60.2296H85.1295C85.3152 60.2296 85.4657 60.0751 85.4657 59.8844C85.4657 59.6937 85.3152 59.5391 85.1295 59.5391Z" fill="#D7D6D6"/>
<path opacity="0.6" d="M73.0261 61.6113H54.1985C54.0128 61.6113 53.8623 61.7659 53.8623 61.9566C53.8623 62.1473 54.0128 62.3019 54.1985 62.3019H73.0261C73.2118 62.3019 73.3623 62.1473 73.3623 61.9566C73.3623 61.7659 73.2118 61.6113 73.0261 61.6113Z" fill="#D7D6D6"/>
<path opacity="0.6" d="M77.0606 65.7559H54.1985C54.0128 65.7559 53.8623 65.9105 53.8623 66.1012C53.8623 66.2919 54.0128 66.4464 54.1985 66.4464H77.0606C77.2463 66.4464 77.3968 66.2919 77.3968 66.1012C77.3968 65.9105 77.2463 65.7559 77.0606 65.7559Z" fill="#D7D6D6"/>
<path opacity="0.6" d="M82.4399 63.6836H54.1985C54.0128 63.6836 53.8623 63.8382 53.8623 64.0289C53.8623 64.2196 54.0128 64.3742 54.1985 64.3742H82.4399C82.6256 64.3742 82.7761 64.2196 82.7761 64.0289C82.7761 63.8382 82.6256 63.6836 82.4399 63.6836Z" fill="#D7D6D6"/>
<rect x="60" y="79" width="1" height="1" fill="#F5B936"/>
<rect x="64" y="79" width="1" height="1" fill="#F5B936"/>
<rect x="68" y="79" width="1" height="1" fill="#F5B936"/>
<rect x="72" y="79" width="1" height="1" fill="#F5B936"/>
<rect x="76" y="79" width="1" height="1" fill="#F5B936"/>
</g>
<mask id="mask2_3059_2951" style="mask-type:luminance" maskUnits="userSpaceOnUse" x="95" y="7" width="40" height="76">
<path d="M133.115 7H96.8852C96.1202 7 95.5 7.63692 95.5 8.42261V81.5774C95.5 82.3631 96.1202 83 96.8852 83H133.115C133.88 83 134.5 82.3631 134.5 81.5774V8.42261C134.5 7.63692 133.88 7 133.115 7Z" fill="white"/>
</mask>
<g mask="url(#mask2_3059_2951)">
<path d="M134.5 7H95.5V60.1753H134.5V7Z" fill="white"/>
<path d="M134.5 27.027C134.5 15.9664 125.77 7 115 7C104.23 7 95.5 15.9664 95.5 27.027C95.5 38.0876 104.23 47.0541 115 47.0541C125.77 47.0541 134.5 38.0876 134.5 27.027Z" fill="#5362E8"/>
<path opacity="0.9" d="M125.89 50.1348H103.109C102.497 50.1348 102 50.6449 102 51.2743V52.0764C102 52.7057 102.497 53.2158 103.109 53.2158H125.89C126.503 53.2158 127 52.7057 127 52.0764V51.2743C127 50.6449 126.503 50.1348 125.89 50.1348Z" fill="#FF4F4F"/>
<path opacity="0.9" d="M114.5 75.082H99.5C99.2239 75.082 99 75.3119 99 75.5955C99 75.8792 99.2239 76.1091 99.5 76.1091H114.5C114.776 76.1091 115 75.8792 115 75.5955C115 75.3119 114.776 75.082 114.5 75.082Z" fill="#B1B1B1"/>
<path opacity="0.9" d="M128.062 78H99.9375C99.4197 78 99 78.6716 99 79.5C99 80.3284 99.4197 81 99.9375 81H128.062C128.58 81 129 80.3284 129 79.5C129 78.6716 128.58 78 128.062 78Z" fill="#FFBABA"/>
<path opacity="0.9" d="M114.5 72H99.5C99.2239 72 99 72.2299 99 72.5135C99 72.7971 99.2239 73.027 99.5 73.027H114.5C114.776 73.027 115 72.7971 115 72.5135C115 72.2299 114.776 72 114.5 72Z" fill="#B1B1B1"/>
<path opacity="0.9" d="M121.5 55.2695H107.5C107.224 55.2695 107 55.4994 107 55.783C107 56.0667 107.224 56.2966 107.5 56.2966H121.5C121.776 56.2966 122 56.0667 122 55.783C122 55.4994 121.776 55.2695 121.5 55.2695Z" fill="#B1B1B1"/>
<path opacity="0.6" d="M130.129 59.5391H99.1985C99.0128 59.5391 98.8623 59.6937 98.8623 59.8844C98.8623 60.0751 99.0128 60.2296 99.1985 60.2296H130.129C130.315 60.2296 130.466 60.0751 130.466 59.8844C130.466 59.6937 130.315 59.5391 130.129 59.5391Z" fill="#D7D6D6"/>
<path opacity="0.6" d="M118.026 61.6113H99.1985C99.0128 61.6113 98.8623 61.7659 98.8623 61.9566C98.8623 62.1473 99.0128 62.3019 99.1985 62.3019H118.026C118.212 62.3019 118.362 62.1473 118.362 61.9566C118.362 61.7659 118.212 61.6113 118.026 61.6113Z" fill="#D7D6D6"/>
<path opacity="0.6" d="M122.061 65.7559H99.1985C99.0128 65.7559 98.8623 65.9105 98.8623 66.1012C98.8623 66.2919 99.0128 66.4464 99.1985 66.4464H122.061C122.246 66.4464 122.397 66.2919 122.397 66.1012C122.397 65.9105 122.246 65.7559 122.061 65.7559Z" fill="#D7D6D6"/>
<path opacity="0.6" d="M127.44 63.6836H99.1985C99.0128 63.6836 98.8623 63.8382 98.8623 64.0289C98.8623 64.2196 99.0128 64.3742 99.1985 64.3742H127.44C127.626 64.3742 127.776 64.2196 127.776 64.0289C127.776 63.8382 127.626 63.6836 127.44 63.6836Z" fill="#D7D6D6"/>
<rect x="105" y="79" width="1" height="1" fill="#FF4F4F"/>
<rect x="109" y="79" width="1" height="1" fill="#FF4F4F"/>
<rect x="113" y="79" width="1" height="1" fill="#FF4F4F"/>
<rect x="117" y="79" width="1" height="1" fill="#FF4F4F"/>
<rect x="121" y="79" width="1" height="1" fill="#FF4F4F"/>
</g>
</svg>
