<svg width="140" height="90" viewBox="0 0 140 90" fill="none" xmlns="http://www.w3.org/2000/svg">
<rect width="140" height="90" fill="white"/>
<rect x="12" y="8" width="26" height="6" rx="3" fill="#438DD1"/>
<rect x="42" y="8" width="26" height="6" rx="3" fill="#B9B9B9"/>
<rect x="72" y="8" width="26" height="6" rx="3" fill="#B9B9B9"/>
<rect x="102" y="8" width="26" height="6" rx="3" fill="#B9B9B9"/>
<g clip-path="url(#clip0_476_603)">
<rect x="5.5" y="19" width="39" height="65" fill="#D6EFFF"/>
<rect x="8.5" y="22.5" width="33" height="33" rx="1.39" fill="#46E19C"/>
<rect opacity="0.9" x="12.5" y="60" width="25" height="3" rx="1.1095" fill="#5D5757"/>
<rect opacity="0.9" x="17.5" y="65" width="15" height="1" rx="0.5" fill="#5D5757"/>
<rect opacity="0.6" x="9.5" y="68" width="31.6034" height="0.672414" rx="0.336207" fill="#888888"/>
<rect opacity="0.6" x="15.5" y="70.0176" width="19.5" height="0.672414" rx="0.336207" fill="#888888"/>
<rect opacity="0.6" x="13.5" y="74.0518" width="23.5345" height="0.672414" rx="0.336207" fill="#888888"/>
<rect opacity="0.6" x="10.5" y="72.0347" width="28.9138" height="0.672414" rx="0.336207" fill="#888888"/>
<circle cx="14.5" cy="79.5" r="2" fill="#5D5757"/>
<circle cx="21.5" cy="79.5" r="2" fill="#5D5757"/>
<circle cx="28.5" cy="79.5" r="2" fill="#5D5757"/>
<circle cx="35.5" cy="79.5" r="2" fill="#5D5757"/>
</g>
<g clip-path="url(#clip1_476_603)">
<rect x="50.5" y="19" width="39" height="65" fill="#D6EFFF"/>
<rect x="53.5" y="22.5" width="33" height="33" rx="1.39" fill="#5362E8"/>
<rect opacity="0.9" x="57.5" y="60" width="25" height="3" rx="1.1095" fill="#5D5757"/>
<rect opacity="0.9" x="62.5" y="65" width="15" height="1" rx="0.5" fill="#5D5757"/>
<rect opacity="0.6" x="54.5" y="68" width="31.6034" height="0.672414" rx="0.336207" fill="#888888"/>
<rect opacity="0.6" x="60.5" y="70.0176" width="19.5" height="0.672414" rx="0.336207" fill="#888888"/>
<rect opacity="0.6" x="58.5" y="74.0518" width="23.5345" height="0.672414" rx="0.336207" fill="#888888"/>
<rect opacity="0.6" x="55.5" y="72.0347" width="28.9138" height="0.672414" rx="0.336207" fill="#888888"/>
<circle cx="59.5" cy="79.5" r="2" fill="#5D5757"/>
<circle cx="66.5" cy="79.5" r="2" fill="#5D5757"/>
<circle cx="73.5" cy="79.5" r="2" fill="#5D5757"/>
<circle cx="80.5" cy="79.5" r="2" fill="#5D5757"/>
</g>
<g clip-path="url(#clip2_476_603)">
<rect x="95.5" y="19" width="39" height="65" fill="#D6EFFF"/>
<rect x="98.5" y="22.5" width="33" height="33" rx="1.39" fill="#00B6FC"/>
<rect opacity="0.9" x="102.5" y="60" width="25" height="3" rx="1.1095" fill="#5D5757"/>
<rect opacity="0.9" x="107.5" y="65" width="15" height="1" rx="0.5" fill="#5D5757"/>
<rect opacity="0.6" x="99.5" y="68" width="31.6034" height="0.672414" rx="0.336207" fill="#888888"/>
<rect opacity="0.6" x="105.5" y="70.0176" width="19.5" height="0.672414" rx="0.336207" fill="#888888"/>
<rect opacity="0.6" x="103.5" y="74.0518" width="23.5345" height="0.672414" rx="0.336207" fill="#888888"/>
<rect opacity="0.6" x="100.5" y="72.0347" width="28.9138" height="0.672414" rx="0.336207" fill="#888888"/>
<circle cx="104.5" cy="79.5" r="2" fill="#5D5757"/>
<circle cx="111.5" cy="79.5" r="2" fill="#5D5757"/>
<circle cx="118.5" cy="79.5" r="2" fill="#5D5757"/>
<circle cx="125.5" cy="79.5" r="2" fill="#5D5757"/>
</g>
<defs>
<clipPath id="clip0_476_603">
<rect x="5.5" y="19" width="39" height="65" rx="1.38517" fill="white"/>
</clipPath>
<clipPath id="clip1_476_603">
<rect x="50.5" y="19" width="39" height="65" rx="1.38517" fill="white"/>
</clipPath>
<clipPath id="clip2_476_603">
<rect x="95.5" y="19" width="39" height="65" rx="1.38517" fill="white"/>
</clipPath>
</defs>
</svg>
