<svg width="140" height="90" viewBox="0 0 140 90" fill="none" xmlns="http://www.w3.org/2000/svg">
<rect width="140" height="90" fill="white"/>
<rect x="12" y="8.5" width="26" height="6" rx="3" fill="#56A162"/>
<rect x="42" y="8.5" width="26" height="6" rx="3" fill="#B9B9B9"/>
<rect x="72" y="8.5" width="26" height="6" rx="3" fill="#B9B9B9"/>
<rect x="102" y="8.5" width="26" height="6" rx="3" fill="#B9B9B9"/>
<g clip-path="url(#clip0_341_995)">
<rect x="5.5" y="19.5" width="39" height="51.7759" fill="white"/>
<rect x="5.5" y="19.5" width="39" height="39" rx="1.39" fill="#FF4F4F"/>
<rect opacity="0.9" x="6" y="60.5" width="25" height="3" rx="1.1095" fill="#B1B1B1"/>
<rect opacity="0.9" x="6" y="82.5" width="16" height="1" rx="0.5" fill="#B1B1B1"/>
<rect opacity="0.9" x="6" y="79.5" width="16" height="1" rx="0.5" fill="#B1B1B1"/>
<rect opacity="0.9" x="6" y="65.5" width="15" height="1" rx="0.5" fill="#B1B1B1"/>
<rect opacity="0.6" x="6" y="68.5" width="31.6034" height="0.672414" rx="0.336207" fill="#D7D6D6"/>
<rect opacity="0.6" x="6" y="70.5176" width="19.5" height="0.672414" rx="0.336207" fill="#D7D6D6"/>
<rect opacity="0.6" x="6" y="74.5518" width="23.5345" height="0.672414" rx="0.336207" fill="#D7D6D6"/>
<rect opacity="0.6" x="6" y="72.5347" width="28.9138" height="0.672414" rx="0.336207" fill="#D7D6D6"/>
</g>
<g clip-path="url(#clip1_341_995)">
<rect x="50.5" y="19.5" width="39" height="51.7759" fill="white"/>
<rect x="50.5" y="19.5" width="39" height="39" rx="1.39" fill="#F5B936"/>
<rect opacity="0.9" x="51" y="60.5" width="25" height="3" rx="1.1095" fill="#B1B1B1"/>
<rect opacity="0.9" x="51" y="82.5" width="16" height="1" rx="0.5" fill="#B1B1B1"/>
<rect opacity="0.9" x="51" y="79.5" width="16" height="1" rx="0.5" fill="#B1B1B1"/>
<rect opacity="0.9" x="51" y="65.5" width="15" height="1" rx="0.5" fill="#B1B1B1"/>
<rect opacity="0.6" x="51" y="68.5" width="31.6034" height="0.672414" rx="0.336207" fill="#D7D6D6"/>
<rect opacity="0.6" x="51" y="70.5176" width="19.5" height="0.672414" rx="0.336207" fill="#D7D6D6"/>
<rect opacity="0.6" x="51" y="74.5518" width="23.5345" height="0.672414" rx="0.336207" fill="#D7D6D6"/>
<rect opacity="0.6" x="51" y="72.5347" width="28.9138" height="0.672414" rx="0.336207" fill="#D7D6D6"/>
</g>
<g clip-path="url(#clip2_341_995)">
<rect x="95.5" y="19.5" width="39" height="51.7759" fill="white"/>
<rect x="95.5" y="19.5" width="39" height="39" rx="1.39" fill="#46E19C"/>
<rect opacity="0.9" x="96" y="60.5" width="25" height="3" rx="1.1095" fill="#B1B1B1"/>
<rect opacity="0.9" x="96" y="82.5" width="16" height="1" rx="0.5" fill="#B1B1B1"/>
<rect opacity="0.9" x="96" y="79.5" width="16" height="1" rx="0.5" fill="#B1B1B1"/>
<rect opacity="0.9" x="96" y="65.5" width="15" height="1" rx="0.5" fill="#B1B1B1"/>
<rect opacity="0.6" x="96" y="68.5" width="31.6034" height="0.672414" rx="0.336207" fill="#D7D6D6"/>
<rect opacity="0.6" x="96" y="70.5176" width="19.5" height="0.672414" rx="0.336207" fill="#D7D6D6"/>
<rect opacity="0.6" x="96" y="74.5518" width="23.5345" height="0.672414" rx="0.336207" fill="#D7D6D6"/>
<rect opacity="0.6" x="96" y="72.5347" width="28.9138" height="0.672414" rx="0.336207" fill="#D7D6D6"/>
</g>
<defs>
<clipPath id="clip0_341_995">
<rect x="5.5" y="19.5" width="39" height="64" rx="1.38517" fill="white"/>
</clipPath>
<clipPath id="clip1_341_995">
<rect x="50.5" y="19.5" width="39" height="64" rx="1.38517" fill="white"/>
</clipPath>
<clipPath id="clip2_341_995">
<rect x="95.5" y="19.5" width="39" height="64" rx="1.38517" fill="white"/>
</clipPath>
</defs>
</svg>
