<svg width="140" height="90" viewBox="0 0 140 90" fill="none" xmlns="http://www.w3.org/2000/svg">
<rect width="140" height="90" fill="white"/>
<g filter="url(#filter0_d_486_551)">
<rect x="41" y="12" width="25" height="25" rx="12.5" fill="#E34D4D"/>
<rect x="41.5" y="12.5" width="24" height="24" rx="12" stroke="white"/>
</g>
<rect opacity="0.9" x="11" y="12" width="27.5966" height="4.70256" rx="1.65002" fill="#B1B1B1"/>
<rect opacity="0.6" x="4" y="24" width="34" height="1" rx="0.5" fill="#D7D6D6"/>
<rect opacity="0.6" x="11" y="28" width="27" height="1" rx="0.5" fill="#D7D6D6"/>
<rect opacity="0.9" x="22" y="19" width="16" height="1.5" rx="0.75" fill="#B1B1B1"/>
<circle cx="15" cy="35" r="2" fill="#B1B1B1"/>
<circle cx="22" cy="35" r="2" fill="#B1B1B1"/>
<circle cx="29" cy="35" r="2" fill="#B1B1B1"/>
<circle cx="36" cy="35" r="2" fill="#B1B1B1"/>
<g filter="url(#filter1_d_486_551)">
<rect x="111" y="12" width="25" height="25" rx="12.5" fill="#46E19C"/>
<rect x="111.5" y="12.5" width="24" height="24" rx="12" stroke="white"/>
</g>
<rect opacity="0.9" x="81" y="12" width="27.5966" height="4.70256" rx="1.65002" fill="#B1B1B1"/>
<rect opacity="0.6" x="74" y="24" width="34" height="1" rx="0.5" fill="#D7D6D6"/>
<rect opacity="0.6" x="81" y="28" width="27" height="1" rx="0.5" fill="#D7D6D6"/>
<rect opacity="0.9" x="92" y="19" width="16" height="1.5" rx="0.75" fill="#B1B1B1"/>
<circle cx="85" cy="35" r="2" fill="#B1B1B1"/>
<circle cx="92" cy="35" r="2" fill="#B1B1B1"/>
<circle cx="99" cy="35" r="2" fill="#B1B1B1"/>
<circle cx="106" cy="35" r="2" fill="#B1B1B1"/>
<g filter="url(#filter2_d_486_551)">
<rect x="41" y="53" width="25" height="25" rx="12.5" fill="#5362E8"/>
<rect x="41.5" y="53.5" width="24" height="24" rx="12" stroke="white"/>
</g>
<rect opacity="0.9" x="11" y="53" width="27.5966" height="4.70256" rx="1.65002" fill="#B1B1B1"/>
<rect opacity="0.6" x="4" y="65" width="34" height="1" rx="0.5" fill="#D7D6D6"/>
<rect opacity="0.6" x="11" y="69" width="27" height="1" rx="0.5" fill="#D7D6D6"/>
<rect opacity="0.9" x="22" y="60" width="16" height="1.5" rx="0.75" fill="#B1B1B1"/>
<circle cx="15" cy="76" r="2" fill="#B1B1B1"/>
<circle cx="22" cy="76" r="2" fill="#B1B1B1"/>
<circle cx="29" cy="76" r="2" fill="#B1B1B1"/>
<circle cx="36" cy="76" r="2" fill="#B1B1B1"/>
<g filter="url(#filter3_d_486_551)">
<rect x="111" y="53" width="25" height="25" rx="12.5" fill="#F5B936"/>
<rect x="111.5" y="53.5" width="24" height="24" rx="12" stroke="white"/>
</g>
<rect opacity="0.9" x="81" y="53" width="27.5966" height="4.70256" rx="1.65002" fill="#B1B1B1"/>
<rect opacity="0.6" x="74" y="65" width="34" height="1" rx="0.5" fill="#D7D6D6"/>
<rect opacity="0.6" x="81" y="69" width="27" height="1" rx="0.5" fill="#D7D6D6"/>
<rect opacity="0.9" x="92" y="60" width="16" height="1.5" rx="0.75" fill="#B1B1B1"/>
<circle cx="85" cy="76" r="2" fill="#B1B1B1"/>
<circle cx="92" cy="76" r="2" fill="#B1B1B1"/>
<circle cx="99" cy="76" r="2" fill="#B1B1B1"/>
<circle cx="106" cy="76" r="2" fill="#B1B1B1"/>
<defs>
<filter id="filter0_d_486_551" x="39" y="10" width="29" height="29" filterUnits="userSpaceOnUse" color-interpolation-filters="sRGB">
<feFlood flood-opacity="0" result="BackgroundImageFix"/>
<feColorMatrix in="SourceAlpha" type="matrix" values="0 0 0 0 0 0 0 0 0 0 0 0 0 0 0 0 0 0 127 0" result="hardAlpha"/>
<feOffset/>
<feGaussianBlur stdDeviation="1"/>
<feComposite in2="hardAlpha" operator="out"/>
<feColorMatrix type="matrix" values="0 0 0 0 0 0 0 0 0 0 0 0 0 0 0 0 0 0 0.2 0"/>
<feBlend mode="normal" in2="BackgroundImageFix" result="effect1_dropShadow_486_551"/>
<feBlend mode="normal" in="SourceGraphic" in2="effect1_dropShadow_486_551" result="shape"/>
</filter>
<filter id="filter1_d_486_551" x="109" y="10" width="29" height="29" filterUnits="userSpaceOnUse" color-interpolation-filters="sRGB">
<feFlood flood-opacity="0" result="BackgroundImageFix"/>
<feColorMatrix in="SourceAlpha" type="matrix" values="0 0 0 0 0 0 0 0 0 0 0 0 0 0 0 0 0 0 127 0" result="hardAlpha"/>
<feOffset/>
<feGaussianBlur stdDeviation="1"/>
<feComposite in2="hardAlpha" operator="out"/>
<feColorMatrix type="matrix" values="0 0 0 0 0 0 0 0 0 0 0 0 0 0 0 0 0 0 0.2 0"/>
<feBlend mode="normal" in2="BackgroundImageFix" result="effect1_dropShadow_486_551"/>
<feBlend mode="normal" in="SourceGraphic" in2="effect1_dropShadow_486_551" result="shape"/>
</filter>
<filter id="filter2_d_486_551" x="39" y="51" width="29" height="29" filterUnits="userSpaceOnUse" color-interpolation-filters="sRGB">
<feFlood flood-opacity="0" result="BackgroundImageFix"/>
<feColorMatrix in="SourceAlpha" type="matrix" values="0 0 0 0 0 0 0 0 0 0 0 0 0 0 0 0 0 0 127 0" result="hardAlpha"/>
<feOffset/>
<feGaussianBlur stdDeviation="1"/>
<feComposite in2="hardAlpha" operator="out"/>
<feColorMatrix type="matrix" values="0 0 0 0 0 0 0 0 0 0 0 0 0 0 0 0 0 0 0.2 0"/>
<feBlend mode="normal" in2="BackgroundImageFix" result="effect1_dropShadow_486_551"/>
<feBlend mode="normal" in="SourceGraphic" in2="effect1_dropShadow_486_551" result="shape"/>
</filter>
<filter id="filter3_d_486_551" x="109" y="51" width="29" height="29" filterUnits="userSpaceOnUse" color-interpolation-filters="sRGB">
<feFlood flood-opacity="0" result="BackgroundImageFix"/>
<feColorMatrix in="SourceAlpha" type="matrix" values="0 0 0 0 0 0 0 0 0 0 0 0 0 0 0 0 0 0 127 0" result="hardAlpha"/>
<feOffset/>
<feGaussianBlur stdDeviation="1"/>
<feComposite in2="hardAlpha" operator="out"/>
<feColorMatrix type="matrix" values="0 0 0 0 0 0 0 0 0 0 0 0 0 0 0 0 0 0 0.2 0"/>
<feBlend mode="normal" in2="BackgroundImageFix" result="effect1_dropShadow_486_551"/>
<feBlend mode="normal" in="SourceGraphic" in2="effect1_dropShadow_486_551" result="shape"/>
</filter>
</defs>
</svg>
