<svg width="140" height="90" viewBox="0 0 140 90" fill="none" xmlns="http://www.w3.org/2000/svg">
<rect width="140" height="90" fill="white"/>
<g clip-path="url(#clip0_479_548)">
<rect x="4" y="12" width="25" height="25" fill="#F5B936"/>
<rect opacity="0.9" x="32" y="12" width="27.5966" height="4.70256" rx="1.65002" fill="#B1B1B1"/>
<rect opacity="0.6" x="32" y="24" width="34" height="1" rx="0.5" fill="#D7D6D6"/>
<rect opacity="0.6" x="32" y="28" width="27" height="1" rx="0.5" fill="#D7D6D6"/>
<rect opacity="0.9" x="32" y="19" width="16" height="1.5" rx="0.75" fill="#B1B1B1"/>
<circle cx="34" cy="35" r="2" fill="#B1B1B1"/>
<circle cx="41" cy="35" r="2" fill="#B1B1B1"/>
<circle cx="48" cy="35" r="2" fill="#B1B1B1"/>
<circle cx="55" cy="35" r="2" fill="#B1B1B1"/>
</g>
<g clip-path="url(#clip1_479_548)">
<rect x="74" y="12" width="25" height="25" fill="#FE5F5F"/>
<rect opacity="0.9" x="102" y="12" width="27.5966" height="4.70256" rx="1.65002" fill="#B1B1B1"/>
<rect opacity="0.6" x="102" y="24" width="34" height="1" rx="0.5" fill="#D7D6D6"/>
<rect opacity="0.6" x="102" y="28" width="27" height="1" rx="0.5" fill="#D7D6D6"/>
<rect opacity="0.9" x="102" y="19" width="16" height="1.5" rx="0.75" fill="#B1B1B1"/>
<circle cx="104" cy="35" r="2" fill="#B1B1B1"/>
<circle cx="111" cy="35" r="2" fill="#B1B1B1"/>
<circle cx="118" cy="35" r="2" fill="#B1B1B1"/>
<circle cx="125" cy="35" r="2" fill="#B1B1B1"/>
</g>
<g clip-path="url(#clip2_479_548)">
<rect x="4" y="53" width="25" height="25" fill="#56A162"/>
<rect opacity="0.9" x="32" y="53" width="27.5966" height="4.70256" rx="1.65002" fill="#B1B1B1"/>
<rect opacity="0.6" x="32" y="65" width="34" height="1" rx="0.5" fill="#D7D6D6"/>
<rect opacity="0.6" x="32" y="69" width="27" height="1" rx="0.5" fill="#D7D6D6"/>
<rect opacity="0.9" x="32" y="60" width="16" height="1.5" rx="0.75" fill="#B1B1B1"/>
<circle cx="34" cy="76" r="2" fill="#B1B1B1"/>
<circle cx="41" cy="76" r="2" fill="#B1B1B1"/>
<circle cx="48" cy="76" r="2" fill="#B1B1B1"/>
<circle cx="55" cy="76" r="2" fill="#B1B1B1"/>
</g>
<g clip-path="url(#clip3_479_548)">
<rect x="74" y="53" width="25" height="25" fill="#5362E8"/>
<rect opacity="0.9" x="102" y="53" width="27.5966" height="4.70256" rx="1.65002" fill="#B1B1B1"/>
<rect opacity="0.6" x="102" y="65" width="34" height="1" rx="0.5" fill="#D7D6D6"/>
<rect opacity="0.6" x="102" y="69" width="27" height="1" rx="0.5" fill="#D7D6D6"/>
<rect opacity="0.9" x="102" y="60" width="16" height="1.5" rx="0.75" fill="#B1B1B1"/>
<circle cx="104" cy="76" r="2" fill="#B1B1B1"/>
<circle cx="111" cy="76" r="2" fill="#B1B1B1"/>
<circle cx="118" cy="76" r="2" fill="#B1B1B1"/>
<circle cx="125" cy="76" r="2" fill="#B1B1B1"/>
</g>
<defs>
<clipPath id="clip0_479_548">
<rect width="62" height="25" fill="white" transform="translate(4 12)"/>
</clipPath>
<clipPath id="clip1_479_548">
<rect width="62" height="25" fill="white" transform="translate(74 12)"/>
</clipPath>
<clipPath id="clip2_479_548">
<rect width="62" height="25" fill="white" transform="translate(4 53)"/>
</clipPath>
<clipPath id="clip3_479_548">
<rect width="62" height="25" fill="white" transform="translate(74 53)"/>
</clipPath>
</defs>
</svg>
