<svg width="140" height="90" viewBox="0 0 140 90" fill="none" xmlns="http://www.w3.org/2000/svg">
<rect width="140" height="90" fill="white"/>
<rect x="4.5" y="8.94385" width="39" height="51.7759" fill="white"/>
<rect opacity="0.9" x="12" y="51" width="25" height="3" rx="1.1095" fill="#FF4F4F"/>
<rect opacity="0.9" x="18" y="59" width="12" height="1" rx="0.5" fill="#B1B1B1"/>
<rect opacity="0.9" x="17" y="56" width="15" height="0.5" rx="0.25" fill="#6F0101"/>
<circle cx="13" cy="65" r="2" fill="#B1B1B1"/>
<circle cx="20" cy="65" r="2" fill="#B1B1B1"/>
<circle cx="27" cy="65" r="2" fill="#B1B1B1"/>
<circle cx="34" cy="65" r="2" fill="#B1B1B1"/>
<circle cx="24" cy="28" r="19" fill="#FF4F4F" stroke="#C2C2C2" stroke-width="3"/>
<path d="M34 11.8414C31.0954 10.0401 27.6692 9 24 9C13.5066 9 5 17.5066 5 28C5 34.3939 8.15832 40.0502 13 43.4938" stroke="#6F0101" stroke-width="3"/>
<rect x="50.5" y="8.94385" width="39" height="51.7759" fill="white"/>
<rect opacity="0.9" x="58" y="51" width="25" height="3" rx="1.1095" fill="#F5B936"/>
<rect opacity="0.9" x="64" y="59" width="12" height="1" rx="0.5" fill="#B1B1B1"/>
<rect opacity="0.9" x="63" y="56" width="15" height="0.5" rx="0.25" fill="#966600"/>
<circle cx="59" cy="65" r="2" fill="#B1B1B1"/>
<circle cx="66" cy="65" r="2" fill="#B1B1B1"/>
<circle cx="73" cy="65" r="2" fill="#B1B1B1"/>
<circle cx="80" cy="65" r="2" fill="#B1B1B1"/>
<circle cx="70" cy="28" r="19" fill="#F5B936" stroke="#C2C2C2" stroke-width="3"/>
<path d="M80 11.8414C77.0954 10.0401 73.6692 9 70 9C59.5066 9 51 17.5066 51 28C51 34.3939 54.1583 40.0502 59 43.4938" stroke="#966600" stroke-width="3"/>
<rect x="96.5" y="8.94385" width="39" height="51.7759" fill="white"/>
<rect opacity="0.9" x="104" y="51" width="25" height="3" rx="1.1095" fill="#FE79FE"/>
<rect opacity="0.9" x="110" y="59" width="12" height="1" rx="0.5" fill="#B1B1B1"/>
<rect opacity="0.9" x="109" y="56" width="15" height="0.5" rx="0.25" fill="#910091"/>
<circle cx="105" cy="65" r="2" fill="#B1B1B1"/>
<circle cx="112" cy="65" r="2" fill="#B1B1B1"/>
<circle cx="119" cy="65" r="2" fill="#B1B1B1"/>
<circle cx="126" cy="65" r="2" fill="#B1B1B1"/>
<circle cx="116" cy="28" r="19" fill="#FE79FE" stroke="#C2C2C2" stroke-width="3"/>
<path d="M126 11.8414C123.095 10.0401 119.669 9 116 9C105.507 9 97 17.5066 97 28C97 34.3939 100.158 40.0502 105 43.4938" stroke="#910091" stroke-width="3"/>
<path d="M27.7334 83.8296L27.3037 84.2593C27.1084 84.4351 26.8154 84.4351 26.6396 84.2593L22.8311 80.4702C22.6553 80.2749 22.6553 79.9819 22.8311 79.8062L26.6396 75.9976C26.8154 75.8218 27.1084 75.8218 27.3037 75.9976L27.7334 76.4272C27.9092 76.6226 27.9092 76.9155 27.7334 77.1108L25.3701 79.3569L30.9756 79.3569C31.249 79.3569 31.4443 79.5522 31.4443 79.8257L31.4443 80.4507C31.4443 80.7046 31.249 80.9194 30.9756 80.9194L25.3701 80.9194L27.7334 83.146C27.9092 83.3413 27.9287 83.6343 27.7334 83.8296Z" fill="#5D5757"/>
<path d="M114.711 76.5024L115.141 76.0728C115.336 75.897 115.629 75.897 115.805 76.0728L119.613 79.8618C119.789 80.0571 119.789 80.3501 119.613 80.5259L115.805 84.3345C115.629 84.5103 115.336 84.5103 115.141 84.3345L114.711 83.9048C114.535 83.7095 114.535 83.4165 114.711 83.2212L117.074 80.9751H111.469C111.195 80.9751 111 80.7798 111 80.5063V79.8813C111 79.6274 111.195 79.4126 111.469 79.4126H117.074L114.711 77.186C114.535 76.9907 114.516 76.6978 114.711 76.5024Z" fill="#5D5757"/>
<circle cx="60.5" cy="79.5562" r="1.5" fill="#D9D9D9"/>
<circle cx="65.5" cy="79.5562" r="1.5" fill="#D9D9D9"/>
<circle cx="70.5" cy="79.5562" r="1.5" fill="#5E5858"/>
<circle cx="75.5" cy="79.5562" r="1.5" fill="#D9D9D9"/>
<circle cx="80.5" cy="79.5562" r="1.5" fill="#D9D9D9"/>
</svg>
