<svg width="140" height="90" viewBox="0 0 140 90" fill="none" xmlns="http://www.w3.org/2000/svg">
<rect width="140" height="90" fill="white"/>
<path d="M11 14C11 11.7909 12.7909 10 15 10H125C127.209 10 129 11.7909 129 14V20H11V14Z" fill="#1782FF"/>
<rect x="16" y="14" width="28" height="2" rx="1" fill="white"/>
<rect x="58.6667" y="14" width="12.5" height="2" rx="1" fill="white"/>
<rect x="81.8333" y="14" width="12.5" height="2" rx="1" fill="white"/>
<rect x="104" y="14" width="14" height="2" rx="0.5" fill="white"/>
<mask id="path-6-inside-1_460_3153" fill="white">
<path d="M11 20H129V30H11V20Z"/>
</mask>
<path d="M129 29.7H11V30.3H129V29.7Z" fill="#9A9A9A" mask="url(#path-6-inside-1_460_3153)"/>
<rect x="16" y="22" width="6" height="6" rx="3" fill="#56A162"/>
<rect x="32.25" y="24" width="16" height="2" rx="1" fill="black" fill-opacity="0.2"/>
<rect x="58.5" y="24" width="12.5" height="2" rx="1" fill="black" fill-opacity="0.2"/>
<rect x="81.25" y="24" width="12.5" height="2" rx="1" fill="black" fill-opacity="0.2"/>
<rect x="104" y="24" width="2" height="2" rx="0.5" fill="#E65353"/>
<rect x="107" y="24" width="2" height="2" rx="0.5" fill="#17E244"/>
<rect x="110" y="24" width="2" height="2" rx="0.5" fill="#39CFFF"/>
<rect x="113" y="24" width="11" height="2" rx="0.5" fill="#1782FF"/>
<mask id="path-16-inside-2_460_3153" fill="white">
<path d="M11 30H129V40H11V30Z"/>
</mask>
<path d="M129 39.7H11V40.3H129V39.7Z" fill="#9A9A9A" mask="url(#path-16-inside-2_460_3153)"/>
<rect x="16" y="32" width="6" height="6" rx="3" fill="#FFA84A"/>
<rect x="32.25" y="34" width="16" height="2" rx="1" fill="black" fill-opacity="0.2"/>
<rect x="58.5" y="34" width="12.5" height="2" rx="1" fill="black" fill-opacity="0.2"/>
<rect x="81.25" y="34" width="12.5" height="2" rx="1" fill="black" fill-opacity="0.2"/>
<rect x="104" y="34" width="2" height="2" rx="0.5" fill="#E65353"/>
<rect x="107" y="34" width="2" height="2" rx="0.5" fill="#17E244"/>
<rect x="110" y="34" width="2" height="2" rx="0.5" fill="#39CFFF"/>
<rect x="113" y="34" width="11" height="2" rx="0.5" fill="#1782FF"/>
<mask id="path-26-inside-3_460_3153" fill="white">
<path d="M11 40H129V50H11V40Z"/>
</mask>
<path d="M129 49.7H11V50.3H129V49.7Z" fill="#9A9A9A" mask="url(#path-26-inside-3_460_3153)"/>
<rect x="16" y="42" width="6" height="6" rx="3" fill="#FE79FE"/>
<rect x="32.25" y="44" width="16" height="2" rx="1" fill="black" fill-opacity="0.2"/>
<rect x="58.5" y="44" width="12.5" height="2" rx="1" fill="black" fill-opacity="0.2"/>
<rect x="81.25" y="44" width="12.5" height="2" rx="1" fill="black" fill-opacity="0.2"/>
<rect x="104" y="44" width="2" height="2" rx="0.5" fill="#E65353"/>
<rect x="107" y="44" width="2" height="2" rx="0.5" fill="#17E244"/>
<rect x="110" y="44" width="2" height="2" rx="0.5" fill="#39CFFF"/>
<rect x="113" y="44" width="11" height="2" rx="0.5" fill="#1782FF"/>
<mask id="path-36-inside-4_460_3153" fill="white">
<path d="M11 50H129V60H11V50Z"/>
</mask>
<path d="M129 59.7H11V60.3H129V59.7Z" fill="#9A9A9A" mask="url(#path-36-inside-4_460_3153)"/>
<rect x="16" y="52" width="6" height="6" rx="3" fill="#5362E8"/>
<rect x="32.25" y="54" width="16" height="2" rx="1" fill="black" fill-opacity="0.2"/>
<rect x="58.5" y="54" width="12.5" height="2" rx="1" fill="black" fill-opacity="0.2"/>
<rect x="81.25" y="54" width="12.5" height="2" rx="1" fill="black" fill-opacity="0.2"/>
<rect x="104" y="54" width="2" height="2" rx="0.5" fill="#E65353"/>
<rect x="107" y="54" width="2" height="2" rx="0.5" fill="#17E244"/>
<rect x="110" y="54" width="2" height="2" rx="0.5" fill="#39CFFF"/>
<rect x="113" y="54" width="11" height="2" rx="0.5" fill="#1782FF"/>
<mask id="path-46-inside-5_460_3153" fill="white">
<path d="M11 60H129V70H11V60Z"/>
</mask>
<path d="M129 69.7H11V70.3H129V69.7Z" fill="#9A9A9A" mask="url(#path-46-inside-5_460_3153)"/>
<rect x="16" y="62" width="6" height="6" rx="3" fill="#46E19C"/>
<rect x="32.25" y="64" width="16" height="2" rx="1" fill="black" fill-opacity="0.2"/>
<rect x="58.5" y="64" width="12.5" height="2" rx="1" fill="black" fill-opacity="0.2"/>
<rect x="81.25" y="64" width="12.5" height="2" rx="1" fill="black" fill-opacity="0.2"/>
<rect x="104" y="64" width="2" height="2" rx="0.5" fill="#E65353"/>
<rect x="107" y="64" width="2" height="2" rx="0.5" fill="#17E244"/>
<rect x="110" y="64" width="2" height="2" rx="0.5" fill="#39CFFF"/>
<rect x="113" y="64" width="11" height="2" rx="0.5" fill="#1782FF"/>
<mask id="path-56-inside-6_460_3153" fill="white">
<path d="M11 70H129V80H11V70Z"/>
</mask>
<path d="M129 79.7H11V80.3H129V79.7Z" fill="#9A9A9A" mask="url(#path-56-inside-6_460_3153)"/>
<rect x="16" y="72" width="6" height="6" rx="3" fill="#FF4F4F"/>
<rect x="32.25" y="74" width="16" height="2" rx="1" fill="black" fill-opacity="0.2"/>
<rect x="58.5" y="74" width="12.5" height="2" rx="1" fill="black" fill-opacity="0.2"/>
<rect x="81.25" y="74" width="12.5" height="2" rx="1" fill="black" fill-opacity="0.2"/>
<rect x="104" y="74" width="2" height="2" rx="0.5" fill="#E65353"/>
<rect x="107" y="74" width="2" height="2" rx="0.5" fill="#17E244"/>
<rect x="110" y="74" width="2" height="2" rx="0.5" fill="#39CFFF"/>
<rect x="113" y="74" width="11" height="2" rx="0.5" fill="#1782FF"/>
</svg>
