<svg width="140" height="90" viewBox="0 0 140 90" fill="none" xmlns="http://www.w3.org/2000/svg">
<rect width="140" height="90" fill="white"/>
<path d="M5 6C5 4.89543 5.89543 4 7 4H133C134.105 4 135 4.89543 135 6V10H5V6Z" fill="#46E19C"/>
<rect opacity="0.9" x="9" y="6" width="19" height="2" rx="1" fill="white"/>
<rect opacity="0.9" x="38" y="6" width="16" height="2" rx="1" fill="white"/>
<rect opacity="0.9" x="64" y="6" width="20" height="2" rx="1" fill="white"/>
<rect opacity="0.9" x="94" y="6" width="7" height="2" rx="1" fill="white"/>
<rect opacity="0.9" x="111" y="6" width="21" height="2" rx="1" fill="white"/>
<mask id="path-7-inside-1_129_1939" fill="white">
<path d="M5 10H135V35H5V10Z"/>
</mask>
<path d="M5 10H135V35H5V10Z" fill="#F9F9F9"/>
<path d="M134 10V35H136V10H134ZM6 35V10H4V35H6Z" fill="#46E19C" mask="url(#path-7-inside-1_129_1939)"/>
<rect opacity="0.9" x="9" y="11" width="20" height="20" rx="1.65002" fill="#00B6FC"/>
<rect opacity="0.9" x="9" y="32" width="2" height="2" rx="1" fill="#FE6060"/>
<rect opacity="0.9" x="12" y="32" width="2" height="2" rx="1" fill="#F6BF4A"/>
<rect opacity="0.9" x="15" y="32" width="2" height="2" rx="1" fill="#46E19C"/>
<rect opacity="0.9" x="18" y="32" width="2" height="2" rx="1" fill="#19BDFC"/>
<rect opacity="0.9" x="39" y="21.5" width="16" height="2" rx="1" fill="#9FE4FF"/>
<rect opacity="0.9" x="65" y="21.5" width="20" height="2" rx="1" fill="#98E3FF"/>
<rect opacity="0.9" x="95" y="21.5" width="7" height="2" rx="1" fill="#98E3FF"/>
<rect opacity="0.9" x="112" y="21.5" width="21" height="2" rx="1" fill="#98E3FF"/>
<mask id="path-18-inside-2_129_1939" fill="white">
<path d="M5 35H135V60H5V35Z"/>
</mask>
<path d="M5 35H135V60H5V35Z" fill="#F2F2F2"/>
<path d="M134 35V60H136V35H134ZM6 60V35H4V60H6Z" fill="#46E19C" mask="url(#path-18-inside-2_129_1939)"/>
<rect opacity="0.9" x="9" y="36" width="20" height="20" rx="1.65002" fill="#FF4F4F"/>
<rect opacity="0.9" x="9" y="57" width="2" height="2" rx="1" fill="#46E19C"/>
<rect opacity="0.9" x="12" y="57" width="2" height="2" rx="1" fill="#19BDFC"/>
<rect opacity="0.9" x="15" y="57" width="2" height="2" rx="1" fill="#FE6060"/>
<rect opacity="0.9" x="18" y="57" width="2" height="2" rx="1" fill="#F6BF4A"/>
<rect opacity="0.9" x="39" y="46.5" width="16" height="2" rx="1" fill="#FF9F9F"/>
<rect opacity="0.9" x="65" y="46.5" width="20" height="2" rx="1" fill="#FF9F9F"/>
<rect opacity="0.9" x="95" y="46.5" width="7" height="2" rx="1" fill="#FF9F9F"/>
<rect opacity="0.9" x="112" y="46.5" width="21" height="2" rx="1" fill="#FF9F9F"/>
<mask id="path-29-inside-3_129_1939" fill="white">
<path d="M5 60H135V84C135 85.1046 134.105 86 133 86H7C5.89543 86 5 85.1046 5 84V60Z"/>
</mask>
<path d="M5 60H135V84C135 85.1046 134.105 86 133 86H7C5.89543 86 5 85.1046 5 84V60Z" fill="#F9F9F9"/>
<path d="M5 60H135H5ZM136 84C136 85.6569 134.657 87 133 87H7C5.34315 87 4 85.6569 4 84H6C6 84.5523 6.44772 85 7 85H133C133.552 85 134 84.5523 134 84H136ZM7 87C5.34315 87 4 85.6569 4 84V60H6V84C6 84.5523 6.44772 85 7 85V87ZM136 60V84C136 85.6569 134.657 87 133 87V85C133.552 85 134 84.5523 134 84V60H136Z" fill="#46E19C" mask="url(#path-29-inside-3_129_1939)"/>
<rect opacity="0.9" x="9" y="61" width="20" height="20" rx="1.65002" fill="#F5B936"/>
<rect opacity="0.9" x="9" y="82" width="2" height="2" rx="1" fill="#19BDFC"/>
<rect opacity="0.9" x="12" y="82" width="2" height="2" rx="1" fill="#F6BF4A"/>
<rect opacity="0.9" x="15" y="82" width="2" height="2" rx="1" fill="#FE6060"/>
<rect opacity="0.9" x="18" y="82" width="2" height="2" rx="1" fill="#46E19C"/>
<rect opacity="0.9" x="39" y="71.5" width="16" height="2" rx="1" fill="#FFDB8E"/>
<rect opacity="0.9" x="65" y="71.5" width="20" height="2" rx="1" fill="#FFDB8E"/>
<rect opacity="0.9" x="95" y="71.5" width="7" height="2" rx="1" fill="#FFDB8E"/>
<rect opacity="0.9" x="112" y="71.5" width="21" height="2" rx="1" fill="#FFDB8E"/>
</svg>
