<svg width="140" height="90" viewBox="0 0 140 90" fill="none" xmlns="http://www.w3.org/2000/svg">
<rect width="140" height="90" fill="white"/>
<g clip-path="url(#clip0_242_1889)">
<rect x="6" y="6.5" width="47.9412" height="38.3529" fill="#5362E8"/>
<rect x="6" y="6.5" width="47.9412" height="38.3529" fill="black" fill-opacity="0.2"/>
<rect opacity="0.8" x="10" y="19" width="30" height="3" rx="1.5" fill="white"/>
<rect opacity="0.8" x="21" y="24" width="8" height="1" rx="0.5" fill="white"/>
<path opacity="0.8" d="M24.4844 27.0234L24.6562 26.8516C24.7344 26.7812 24.8516 26.7812 24.9219 26.8516L26.4453 28.3672C26.5156 28.4453 26.5156 28.5625 26.4453 28.6328L24.9219 30.1562C24.8516 30.2266 24.7344 30.2266 24.6562 30.1562L24.4844 29.9844C24.4141 29.9062 24.4141 29.7891 24.4844 29.7109L25.4297 28.8125H23.1875C23.0781 28.8125 23 28.7344 23 28.625V28.375C23 28.2734 23.0781 28.1875 23.1875 28.1875H25.4297L24.4844 27.2969C24.4141 27.2188 24.4062 27.1016 24.4844 27.0234Z" fill="white"/>
</g>
<g clip-path="url(#clip1_242_1889)">
<rect x="51" y="6.5" width="47.9412" height="38.3529" fill="#56A162"/>
<rect x="51" y="6.5" width="47.9412" height="38.3529" fill="black" fill-opacity="0.2"/>
<rect opacity="0.8" x="55" y="19" width="30" height="3" rx="1.5" fill="white"/>
<rect opacity="0.8" x="66" y="24" width="8" height="1" rx="0.5" fill="white"/>
<path opacity="0.8" d="M69.4844 27.0234L69.6562 26.8516C69.7344 26.7812 69.8516 26.7812 69.9219 26.8516L71.4453 28.3672C71.5156 28.4453 71.5156 28.5625 71.4453 28.6328L69.9219 30.1562C69.8516 30.2266 69.7344 30.2266 69.6562 30.1562L69.4844 29.9844C69.4141 29.9062 69.4141 29.7891 69.4844 29.7109L70.4297 28.8125H68.1875C68.0781 28.8125 68 28.7344 68 28.625V28.375C68 28.2734 68.0781 28.1875 68.1875 28.1875H70.4297L69.4844 27.2969C69.4141 27.2188 69.4062 27.1016 69.4844 27.0234Z" fill="white"/>
</g>
<g clip-path="url(#clip2_242_1889)">
<rect x="96" y="6.5" width="47.9412" height="38.3529" fill="#F5B936"/>
<rect x="96" y="6.5" width="47.9412" height="38.3529" fill="black" fill-opacity="0.2"/>
<rect opacity="0.8" x="100" y="19" width="30" height="3" rx="1.5" fill="white"/>
<rect opacity="0.8" x="111" y="24" width="8" height="1" rx="0.5" fill="white"/>
<path opacity="0.8" d="M114.484 27.0234L114.656 26.8516C114.734 26.7812 114.852 26.7812 114.922 26.8516L116.445 28.3672C116.516 28.4453 116.516 28.5625 116.445 28.6328L114.922 30.1562C114.852 30.2266 114.734 30.2266 114.656 30.1562L114.484 29.9844C114.414 29.9062 114.414 29.7891 114.484 29.7109L115.43 28.8125H113.188C113.078 28.8125 113 28.7344 113 28.625V28.375C113 28.2734 113.078 28.1875 113.188 28.1875H115.43L114.484 27.2969C114.414 27.2188 114.406 27.1016 114.484 27.0234Z" fill="white"/>
</g>
<g clip-path="url(#clip3_242_1889)">
<rect x="6" y="48.5" width="47.9412" height="38.3529" fill="#46E19C"/>
<rect x="6" y="48.5" width="47.9412" height="38.3529" fill="black" fill-opacity="0.2"/>
<rect opacity="0.8" x="10" y="61" width="30" height="3" rx="1.5" fill="white"/>
<rect opacity="0.8" x="21" y="66" width="8" height="1" rx="0.5" fill="white"/>
<path opacity="0.8" d="M24.4844 69.0234L24.6562 68.8516C24.7344 68.7812 24.8516 68.7812 24.9219 68.8516L26.4453 70.3672C26.5156 70.4453 26.5156 70.5625 26.4453 70.6328L24.9219 72.1562C24.8516 72.2266 24.7344 72.2266 24.6562 72.1562L24.4844 71.9844C24.4141 71.9062 24.4141 71.7891 24.4844 71.7109L25.4297 70.8125H23.1875C23.0781 70.8125 23 70.7344 23 70.625V70.375C23 70.2734 23.0781 70.1875 23.1875 70.1875H25.4297L24.4844 69.2969C24.4141 69.2188 24.4062 69.1016 24.4844 69.0234Z" fill="white"/>
</g>
<g clip-path="url(#clip4_242_1889)">
<rect x="51" y="48.5" width="47.9412" height="38.3529" fill="#FE79FE"/>
<rect x="51" y="48.5" width="47.9412" height="38.3529" fill="black" fill-opacity="0.2"/>
<rect opacity="0.8" x="55" y="61" width="30" height="3" rx="1.5" fill="white"/>
<rect opacity="0.8" x="66" y="66" width="8" height="1" rx="0.5" fill="white"/>
<path opacity="0.8" d="M69.4844 69.0234L69.6562 68.8516C69.7344 68.7812 69.8516 68.7812 69.9219 68.8516L71.4453 70.3672C71.5156 70.4453 71.5156 70.5625 71.4453 70.6328L69.9219 72.1562C69.8516 72.2266 69.7344 72.2266 69.6562 72.1562L69.4844 71.9844C69.4141 71.9062 69.4141 71.7891 69.4844 71.7109L70.4297 70.8125H68.1875C68.0781 70.8125 68 70.7344 68 70.625V70.375C68 70.2734 68.0781 70.1875 68.1875 70.1875H70.4297L69.4844 69.2969C69.4141 69.2188 69.4062 69.1016 69.4844 69.0234Z" fill="white"/>
</g>
<g clip-path="url(#clip5_242_1889)">
<rect x="96" y="48.5" width="47.9412" height="38.3529" fill="#FF4F4F"/>
<rect x="96" y="48.5" width="47.9412" height="38.3529" fill="black" fill-opacity="0.2"/>
<rect opacity="0.8" x="100" y="61" width="30" height="3" rx="1.5" fill="white"/>
<rect opacity="0.8" x="111" y="66" width="8" height="1" rx="0.5" fill="white"/>
<path opacity="0.8" d="M114.484 69.0234L114.656 68.8516C114.734 68.7812 114.852 68.7812 114.922 68.8516L116.445 70.3672C116.516 70.4453 116.516 70.5625 116.445 70.6328L114.922 72.1562C114.852 72.2266 114.734 72.2266 114.656 72.1562L114.484 71.9844C114.414 71.9062 114.414 71.7891 114.484 71.7109L115.43 70.8125H113.188C113.078 70.8125 113 70.7344 113 70.625V70.375C113 70.2734 113.078 70.1875 113.188 70.1875H115.43L114.484 69.2969C114.414 69.2188 114.406 69.1016 114.484 69.0234Z" fill="white"/>
</g>
<defs>
<clipPath id="clip0_242_1889">
<rect x="6" y="6.5" width="38" height="35" rx="2.39706" fill="white"/>
</clipPath>
<clipPath id="clip1_242_1889">
<rect x="51" y="6.5" width="38" height="35" rx="2.39706" fill="white"/>
</clipPath>
<clipPath id="clip2_242_1889">
<rect x="96" y="6.5" width="38" height="35" rx="2.39706" fill="white"/>
</clipPath>
<clipPath id="clip3_242_1889">
<rect x="6" y="48.5" width="38" height="35" rx="2.39706" fill="white"/>
</clipPath>
<clipPath id="clip4_242_1889">
<rect x="51" y="48.5" width="38" height="35" rx="2.39706" fill="white"/>
</clipPath>
<clipPath id="clip5_242_1889">
<rect x="96" y="48.5" width="38" height="35" rx="2.39706" fill="white"/>
</clipPath>
</defs>
</svg>
