<svg width="140" height="90" viewBox="0 0 140 90" fill="none" xmlns="http://www.w3.org/2000/svg">
<rect width="140" height="90" fill="white"/>
<g clip-path="url(#clip0_34_852)">
<rect x="4.5" y="6.94385" width="39" height="51.7759" fill="white"/>
<rect x="4.5" y="6.94385" width="39" height="39" rx="1.39" fill="#FF4F4F"/>
<rect opacity="0.9" x="11" y="48.9438" width="25" height="3" rx="1.1095" fill="#B1B1B1"/>
<rect opacity="0.9" x="8" y="69.4438" width="16" height="1" rx="0.5" fill="#B1B1B1"/>
<rect opacity="0.9" x="8" y="66.4438" width="16" height="1" rx="0.5" fill="#B1B1B1"/>
<rect opacity="0.9" x="16" y="53.9438" width="15" height="1" rx="0.5" fill="#B1B1B1"/>
<rect opacity="0.6" x="7.86206" y="57.9951" width="31.6034" height="0.672414" rx="0.336207" fill="#D7D6D6"/>
<rect opacity="0.6" x="7.86206" y="60.0127" width="19.5" height="0.672414" rx="0.336207" fill="#D7D6D6"/>
<rect opacity="0.6" x="7.86206" y="62.0298" width="28.9138" height="0.672414" rx="0.336207" fill="#D7D6D6"/>
</g>
<g clip-path="url(#clip1_34_852)">
<rect x="50.5" y="6.94385" width="39" height="51.7759" fill="white"/>
<rect x="50.5" y="6.94385" width="39" height="39" rx="1.39" fill="#F5B936"/>
<rect opacity="0.9" x="57" y="48.9438" width="25" height="3" rx="1.1095" fill="#B1B1B1"/>
<rect opacity="0.9" x="54" y="69.4438" width="16" height="1" rx="0.5" fill="#B1B1B1"/>
<rect opacity="0.9" x="54" y="66.4438" width="16" height="1" rx="0.5" fill="#B1B1B1"/>
<rect opacity="0.9" x="62" y="53.9438" width="15" height="1" rx="0.5" fill="#B1B1B1"/>
<rect opacity="0.6" x="53.8621" y="57.9951" width="31.6034" height="0.672414" rx="0.336207" fill="#D7D6D6"/>
<rect opacity="0.6" x="53.8621" y="60.0127" width="19.5" height="0.672414" rx="0.336207" fill="#D7D6D6"/>
<rect opacity="0.6" x="53.8621" y="62.0298" width="28.9138" height="0.672414" rx="0.336207" fill="#D7D6D6"/>
</g>
<g clip-path="url(#clip2_34_852)">
<rect x="96.5" y="6.94385" width="39" height="51.7759" fill="white"/>
<rect x="96.5" y="6.94385" width="39" height="39" rx="1.39" fill="#46E19C"/>
<rect opacity="0.9" x="103" y="48.9438" width="25" height="3" rx="1.1095" fill="#B1B1B1"/>
<rect opacity="0.9" x="100" y="69.4438" width="16" height="1" rx="0.5" fill="#B1B1B1"/>
<rect opacity="0.9" x="100" y="66.4438" width="16" height="1" rx="0.5" fill="#B1B1B1"/>
<rect opacity="0.9" x="108" y="53.9438" width="15" height="1" rx="0.5" fill="#B1B1B1"/>
<rect opacity="0.6" x="99.8621" y="57.9951" width="31.6034" height="0.672414" rx="0.336207" fill="#D7D6D6"/>
<rect opacity="0.6" x="99.8621" y="60.0127" width="19.5" height="0.672414" rx="0.336207" fill="#D7D6D6"/>
<rect opacity="0.6" x="99.8621" y="62.0298" width="28.9138" height="0.672414" rx="0.336207" fill="#D7D6D6"/>
</g>
<path d="M27.7334 85.8296L27.3037 86.2593C27.1084 86.4351 26.8154 86.4351 26.6396 86.2593L22.8311 82.4702C22.6553 82.2749 22.6553 81.9819 22.8311 81.8062L26.6396 77.9976C26.8154 77.8218 27.1084 77.8218 27.3037 77.9976L27.7334 78.4272C27.9092 78.6226 27.9092 78.9155 27.7334 79.1108L25.3701 81.3569L30.9756 81.3569C31.249 81.3569 31.4443 81.5522 31.4443 81.8257L31.4443 82.4507C31.4443 82.7046 31.249 82.9194 30.9756 82.9194L25.3701 82.9194L27.7334 85.146C27.9092 85.3413 27.9287 85.6343 27.7334 85.8296Z" fill="#5D5757"/>
<path d="M114.711 78.5024L115.141 78.0728C115.336 77.897 115.629 77.897 115.805 78.0728L119.613 81.8618C119.789 82.0571 119.789 82.3501 119.613 82.5259L115.805 86.3345C115.629 86.5103 115.336 86.5103 115.141 86.3345L114.711 85.9048C114.535 85.7095 114.535 85.4165 114.711 85.2212L117.074 82.9751H111.469C111.195 82.9751 111 82.7798 111 82.5063V81.8813C111 81.6274 111.195 81.4126 111.469 81.4126H117.074L114.711 79.186C114.535 78.9907 114.516 78.6978 114.711 78.5024Z" fill="#5D5757"/>
<circle cx="60.5" cy="81.5562" r="1.5" fill="#D9D9D9"/>
<circle cx="65.5" cy="81.5562" r="1.5" fill="#D9D9D9"/>
<circle cx="70.5" cy="81.5562" r="1.5" fill="#5E5858"/>
<circle cx="75.5" cy="81.5562" r="1.5" fill="#D9D9D9"/>
<circle cx="80.5" cy="81.5562" r="1.5" fill="#D9D9D9"/>
<defs>
<clipPath id="clip0_34_852">
<rect x="4.5" y="6.94385" width="39" height="64" rx="1.38517" fill="white"/>
</clipPath>
<clipPath id="clip1_34_852">
<rect x="50.5" y="6.94385" width="39" height="64" rx="1.38517" fill="white"/>
</clipPath>
<clipPath id="clip2_34_852">
<rect x="96.5" y="6.94385" width="39" height="64" rx="1.38517" fill="white"/>
</clipPath>
</defs>
</svg>
